<?xml version="1.0" encoding="iso-8859-1"?>
<!-- Generator: Adobe Illustrator 19.0.0, SVG Export Plug-In . SVG Version: 6.00 Build 0)  -->
<svg version="1.1" id="Capa_1" xmlns="http://www.w3.org/2000/svg" xmlns:xlink="http://www.w3.org/1999/xlink" x="0px" y="0px"
	 viewBox="0 0 512 512" style="enable-background:new 0 0 512 512;" xml:space="preserve">
<path style="fill:#009655;" d="M260.697,393.323c0,25.693-20.83,46.533-46.523,46.533h-34.058c-8.087,0-15.999-0.742-23.684-2.132
	C94.755,426.536,47.841,372.431,47.841,307.581v-59.297c0-23.066,16.771-42.207,38.797-45.884c2.514-0.433,5.099-0.649,7.737-0.649
	c2.627,0,5.213,0.216,7.716,0.639c22.025,3.678,38.807,22.819,38.807,45.895v59.297c0,12.743,6.099,24.065,15.535,31.235
	c6.583,4.996,14.793,7.974,23.684,7.974h34.058C239.867,346.79,260.697,367.63,260.697,393.323z"/>
<g>
	<path style="fill:#006B42;" d="M260.7,393.323c0,25.696-20.833,46.529-46.529,46.529h-34.059c-8.084,0-15.994-0.733-23.683-2.129
		v-98.909c6.584,5.002,14.796,7.98,23.683,7.98h34.059C239.867,346.794,260.7,367.628,260.7,393.323z"/>
	<path style="fill:#006B42;" d="M221.9,393.323c0,4.275-3.461,7.726-7.726,7.726h-34.058c-51.54,0-93.479-41.928-93.479-93.468
		V202.4c2.514-0.433,5.099-0.649,7.737-0.649c2.627,0,5.213,0.216,7.716,0.639v105.192c0,43.02,35.006,78.016,78.026,78.016h34.058
		C218.439,385.597,221.9,389.058,221.9,393.323z"/>
</g>
<path style="fill:#009655;" d="M464.159,93.828v59.301c0,70.41-55.3,128.141-124.756,132.049c-2.489,0.151-5.002,0.221-7.526,0.221
	H297.83c-25.707,0-46.529-20.833-46.529-46.529s20.822-46.529,46.529-46.529h34.048c2.571,0,5.095-0.244,7.526-0.733
	c18.042-3.513,31.698-19.426,31.698-38.479V93.828c0-5.2,0.849-10.19,2.419-14.854C379.732,60.56,397.134,47.3,417.63,47.3
	c21.741,0,39.992,14.901,45.098,35.06C463.659,86.023,464.159,89.874,464.159,93.828z"/>
<g>
	<path style="fill:#006B42;" d="M339.404,191.609v93.57c-2.489,0.151-5.002,0.221-7.526,0.221H297.83
		c-25.707,0-46.529-20.833-46.529-46.529s20.822-46.529,46.529-46.529h34.048C334.448,192.342,336.972,192.098,339.404,191.609z"/>
	<path style="fill:#006B42;" d="M462.728,82.359c-7.177,6.654-16.774,10.725-27.324,10.725c-5.444,0-10.748-1.093-15.657-3.176
		c-4.909,2.082-10.213,3.176-15.657,3.176c-12.225,0-23.195-5.479-30.569-14.11C379.732,60.56,397.134,47.3,417.63,47.3
		C439.371,47.3,457.622,62.2,462.728,82.359z"/>
	<path style="fill:#006B42;" d="M331.882,246.6h-34.057c-4.267,0-7.726-3.459-7.726-7.726c0-4.268,3.459-7.726,7.726-7.726h34.057
		c43.021,0,78.022-35.001,78.022-78.022V50.79c0-4.268,3.459-7.726,7.726-7.726s7.726,3.459,7.726,7.726v102.335
		C425.356,204.667,383.424,246.6,331.882,246.6z"/>
</g>
<path style="fill:#009655;" d="M321.951,88.822V503.13c0,4.893-3.966,8.87-8.86,8.87H182.743c-4.893,0-8.87-3.976-8.87-8.87V88.822
	c0-4.976,0.494-9.828,1.422-14.526c4.152-20.851,17.06-38.539,34.717-49.078c4.821-2.884,10.003-5.233,15.453-6.964
	c7.077-2.256,14.618-3.472,22.448-3.472c7.829,0,15.37,1.216,22.458,3.472c5.45,1.731,10.631,4.08,15.453,6.964
	c5.275,3.142,10.137,6.933,14.453,11.25C313.658,49.871,321.951,68.373,321.951,88.822z"/>
<g>
	<path style="fill:#006B42;" d="M212.985,124.549c-1.361,5.269-3.746,10.143-6.991,14.366c0.791,5.269,0.523,10.678-0.838,15.959
		c-3.932,15.238-16.273,26.545-31.279,29.43V88.827c0-4.979,0.489-9.829,1.419-14.529c2.955,0.093,5.909,0.512,8.782,1.256
		c10.411,2.675,19.147,9.259,24.602,18.507C214.136,103.32,215.66,114.138,212.985,124.549z"/>
	<path style="fill:#006B42;" d="M321.955,327.683V445.18c-2.955,0.616-6.002,0.931-9.131,0.931c-6.747,0-13.296-1.477-19.275-4.292
		c-5.979,2.815-12.528,4.292-19.275,4.292c-25.091,0-45.494-20.403-45.494-45.482c0-14.168,6.526-26.847,16.715-35.199
		c0.256-26.138,21.589-47.32,47.785-47.32C304.03,318.109,313.964,321.68,321.955,327.683z"/>
	<path style="fill:#006B42;" d="M285.823,512V25.219c-4.821-2.885-10.003-5.233-15.453-6.964V512H285.823z"/>
	<path style="fill:#006B42;" d="M225.465,18.255V512h-15.453V25.219C214.833,22.334,220.015,19.985,225.465,18.255z"/>
</g>
<circle style="fill:#FF9300;" cx="142.76" cy="122.82" r="24.656"/>
<path style="fill:#A4E869;" d="M151.983,108.809c-1.517,5.881-0.575,11.807,2.157,16.729c-4.772,2.986-8.463,7.717-9.98,13.598
	c-3.142,12.179,4.184,24.599,16.363,27.741s24.599-4.184,27.741-16.363c1.517-5.881,0.575-11.808-2.157-16.729
	c4.772-2.986,8.463-7.717,9.98-13.598c3.142-12.179-4.184-24.599-16.363-27.741C167.545,89.304,155.125,96.63,151.983,108.809z"/>
<circle style="fill:#FF9300;" cx="419.53" cy="24.656" r="24.656"/>
<path style="fill:#A4E869;" d="M435.407,30.083c-6.073,0-11.577,2.392-15.66,6.267c-4.083-3.875-9.587-6.267-15.66-6.267
	c-12.578,0-22.774,10.196-22.774,22.774S391.51,75.63,404.087,75.63c6.073,0,11.577-2.392,15.66-6.267
	c4.083,3.875,9.587,6.267,15.66,6.267c12.578,0,22.774-10.196,22.774-22.774S447.985,30.083,435.407,30.083z"/>
<circle style="fill:#FF9300;" cx="293.29" cy="365.91" r="30.355"/>
<path style="fill:#A4E869;" d="M312.829,372.589c-7.477,0-14.253,2.945-19.28,7.716c-5.027-4.77-11.803-7.716-19.28-7.716
	c-15.485,0-28.038,12.553-28.038,28.038s12.553,28.038,28.038,28.038c7.477,0,14.253-2.945,19.28-7.716
	c5.027,4.77,11.803,7.716,19.28,7.716c15.485,0,28.038-12.553,28.038-28.038S328.314,372.589,312.829,372.589z"/>
<g>
	<path style="fill:#006B42;" d="M247.916,243.827c-4.267,0-7.726-3.459-7.726-7.726v-0.942c0-4.268,3.459-7.726,7.726-7.726
		s7.726,3.459,7.726,7.726v0.942C255.643,240.368,252.183,243.827,247.916,243.827z"/>
	<path style="fill:#006B42;" d="M394.624,137.859c-4.267,0-7.726-3.459-7.726-7.726v-0.943c0-4.268,3.459-7.726,7.726-7.726
		s7.726,3.459,7.726,7.726v0.943C402.351,134.4,398.892,137.859,394.624,137.859z"/>
	<path style="fill:#006B42;" d="M374.513,259.864c-4.267,0-7.726-3.459-7.726-7.726v-0.942c0-4.268,3.459-7.726,7.726-7.726
		s7.726,3.459,7.726,7.726v0.942C382.239,256.405,378.78,259.864,374.513,259.864z"/>
	<path style="fill:#006B42;" d="M300.199,185.422c-4.267,0-7.726-3.459-7.726-7.726v-0.942c0-4.268,3.459-7.726,7.726-7.726
		s7.726,3.459,7.726,7.726v0.942C307.926,181.963,304.467,185.422,300.199,185.422z"/>
	<path style="fill:#006B42;" d="M243.34,54.788c-4.267,0-7.726-3.459-7.726-7.726V46.12c0-4.268,3.459-7.726,7.726-7.726
		s7.726,3.459,7.726,7.726v0.942C251.067,51.329,247.607,54.788,243.34,54.788z"/>
	<path style="fill:#006B42;" d="M300.199,490.42c-4.267,0-7.726-3.459-7.726-7.726v-0.942c0-4.268,3.459-7.726,7.726-7.726
		s7.726,3.459,7.726,7.726v0.942C307.926,486.961,304.467,490.42,300.199,490.42z"/>
	<path style="fill:#006B42;" d="M194.075,408.824c-4.267,0-7.726-3.459-7.726-7.726v-0.942c0-4.268,3.459-7.726,7.726-7.726
		s7.726,3.459,7.726,7.726v0.942C201.801,405.365,198.342,408.824,194.075,408.824z"/>
	<path style="fill:#006B42;" d="M116.925,307.147c-4.267,0-7.726-3.459-7.726-7.726v-0.942c0-4.268,3.459-7.726,7.726-7.726
		s7.726,3.459,7.726,7.726v0.942C124.651,303.688,121.192,307.147,116.925,307.147z"/>
</g>
<g>
</g>
<g>
</g>
<g>
</g>
<g>
</g>
<g>
</g>
<g>
</g>
<g>
</g>
<g>
</g>
<g>
</g>
<g>
</g>
<g>
</g>
<g>
</g>
<g>
</g>
<g>
</g>
<g>
</g>
</svg>
